<svg width="277" height="70" viewBox="0 0 277 70" fill="none" xmlns="http://www.w3.org/2000/svg">
<circle opacity="0.8" cx="30" cy="25" r="15" fill="#CA2E55"/>
<circle opacity="0.8" cx="15" cy="45" r="15" fill="#DB9B57"/>
<circle opacity="0.8" cx="50" cy="45" r="15" fill="#B6D6CC"/>
<path d="M91.38 45.3C89.62 45.3 88.05 44.91 86.67 44.13C85.31 43.35 84.25 42.2 83.49 40.68C82.73 39.16 82.35 37.31 82.35 35.13C82.35 32.99 82.75 31.16 83.55 29.64C84.35 28.12 85.49 26.95 86.97 26.13C88.47 25.31 90.23 24.9 92.25 24.9C94.49 24.9 96.3 25.31 97.68 26.13C99.06 26.93 100.13 28.21 100.89 29.97L96.12 31.86C95.86 30.84 95.4 30.1 94.74 29.64C94.08 29.18 93.26 28.95 92.28 28.95C91.3 28.95 90.46 29.19 89.76 29.67C89.06 30.13 88.53 30.82 88.17 31.74C87.81 32.64 87.63 33.76 87.63 35.1C87.63 36.5 87.81 37.67 88.17 38.61C88.55 39.55 89.1 40.25 89.82 40.71C90.56 41.15 91.47 41.37 92.55 41.37C93.13 41.37 93.66 41.3 94.14 41.16C94.62 41.02 95.04 40.82 95.4 40.56C95.76 40.28 96.04 39.94 96.24 39.54C96.44 39.12 96.54 38.63 96.54 38.07V37.77H92.01V34.32H100.92V45H97.41L97.02 40.35L97.86 41.07C97.44 42.43 96.68 43.48 95.58 44.22C94.5 44.94 93.1 45.3 91.38 45.3ZM111.65 29.7C113.23 29.7 114.61 30.01 115.79 30.63C116.99 31.23 117.92 32.12 118.58 33.3C119.26 34.46 119.6 35.86 119.6 37.5C119.6 39.14 119.26 40.55 118.58 41.73C117.92 42.89 116.99 43.78 115.79 44.4C114.61 45 113.23 45.3 111.65 45.3C110.11 45.3 108.74 45 107.54 44.4C106.34 43.78 105.4 42.89 104.72 41.73C104.06 40.55 103.73 39.14 103.73 37.5C103.73 35.86 104.06 34.46 104.72 33.3C105.4 32.12 106.34 31.23 107.54 30.63C108.74 30.01 110.11 29.7 111.65 29.7ZM111.65 33.33C111.07 33.33 110.57 33.47 110.15 33.75C109.73 34.03 109.41 34.48 109.19 35.1C108.97 35.72 108.86 36.52 108.86 37.5C108.86 38.48 108.97 39.28 109.19 39.9C109.41 40.5 109.73 40.95 110.15 41.25C110.57 41.53 111.07 41.67 111.65 41.67C112.25 41.67 112.76 41.53 113.18 41.25C113.6 40.95 113.92 40.5 114.14 39.9C114.36 39.28 114.47 38.48 114.47 37.5C114.47 36.52 114.36 35.72 114.14 35.1C113.92 34.48 113.6 34.03 113.18 33.75C112.76 33.47 112.25 33.33 111.65 33.33ZM129.609 29.7C131.189 29.7 132.569 30.01 133.749 30.63C134.949 31.23 135.879 32.12 136.539 33.3C137.219 34.46 137.559 35.86 137.559 37.5C137.559 39.14 137.219 40.55 136.539 41.73C135.879 42.89 134.949 43.78 133.749 44.4C132.569 45 131.189 45.3 129.609 45.3C128.069 45.3 126.699 45 125.499 44.4C124.299 43.78 123.359 42.89 122.679 41.73C122.019 40.55 121.689 39.14 121.689 37.5C121.689 35.86 122.019 34.46 122.679 33.3C123.359 32.12 124.299 31.23 125.499 30.63C126.699 30.01 128.069 29.7 129.609 29.7ZM129.609 33.33C129.029 33.33 128.529 33.47 128.109 33.75C127.689 34.03 127.369 34.48 127.149 35.1C126.929 35.72 126.819 36.52 126.819 37.5C126.819 38.48 126.929 39.28 127.149 39.9C127.369 40.5 127.689 40.95 128.109 41.25C128.529 41.53 129.029 41.67 129.609 41.67C130.209 41.67 130.719 41.53 131.139 41.25C131.559 40.95 131.879 40.5 132.099 39.9C132.319 39.28 132.429 38.48 132.429 37.5C132.429 36.52 132.319 35.72 132.099 35.1C131.879 34.48 131.559 34.03 131.139 33.75C130.719 33.47 130.209 33.33 129.609 33.33ZM140.428 45V30H144.988L145.258 35.16L144.688 34.59C144.888 33.51 145.238 32.61 145.738 31.89C146.258 31.17 146.898 30.63 147.658 30.27C148.438 29.89 149.308 29.7 150.268 29.7C151.308 29.7 152.208 29.9 152.968 30.3C153.748 30.7 154.358 31.29 154.798 32.07C155.238 32.85 155.458 33.83 155.458 35.01V45H150.358V36.36C150.358 35.32 150.158 34.6 149.758 34.2C149.358 33.8 148.848 33.6 148.228 33.6C147.748 33.6 147.298 33.72 146.878 33.96C146.458 34.18 146.128 34.54 145.888 35.04C145.648 35.54 145.528 36.21 145.528 37.05V45H140.428ZM175.715 24.9C177.555 24.9 179.175 25.19 180.575 25.77C181.995 26.33 183.225 27.16 184.265 28.26L181.775 31.59C180.915 30.69 179.985 30.02 178.985 29.58C178.005 29.12 176.885 28.89 175.625 28.89C174.885 28.89 174.285 28.97 173.825 29.13C173.365 29.29 173.035 29.51 172.835 29.79C172.635 30.07 172.535 30.39 172.535 30.75C172.535 31.17 172.725 31.53 173.105 31.83C173.505 32.11 174.145 32.35 175.025 32.55L178.355 33.3C180.335 33.76 181.785 34.43 182.705 35.31C183.625 36.19 184.085 37.36 184.085 38.82C184.085 40.22 183.725 41.41 183.005 42.39C182.285 43.35 181.295 44.08 180.035 44.58C178.775 45.06 177.335 45.3 175.715 45.3C174.395 45.3 173.135 45.16 171.935 44.88C170.735 44.58 169.655 44.16 168.695 43.62C167.735 43.08 166.925 42.46 166.265 41.76L168.755 38.31C169.255 38.89 169.865 39.41 170.585 39.87C171.325 40.31 172.125 40.66 172.985 40.92C173.865 41.18 174.755 41.31 175.655 41.31C176.355 41.31 176.935 41.24 177.395 41.1C177.875 40.96 178.225 40.75 178.445 40.47C178.665 40.19 178.775 39.86 178.775 39.48C178.775 39.06 178.625 38.71 178.325 38.43C178.025 38.13 177.455 37.88 176.615 37.68L172.955 36.87C171.835 36.61 170.835 36.27 169.955 35.85C169.095 35.41 168.415 34.83 167.915 34.11C167.415 33.37 167.165 32.45 167.165 31.35C167.165 30.11 167.505 29.01 168.185 28.05C168.865 27.07 169.845 26.3 171.125 25.74C172.405 25.18 173.935 24.9 175.715 24.9ZM197.001 51.3V39.99L197.541 40.65C197.421 41.57 197.131 42.38 196.671 43.08C196.211 43.78 195.631 44.33 194.931 44.73C194.231 45.11 193.411 45.3 192.471 45.3C191.251 45.3 190.171 44.99 189.231 44.37C188.311 43.75 187.591 42.85 187.071 41.67C186.551 40.49 186.291 39.08 186.291 37.44C186.291 35.8 186.551 34.41 187.071 33.27C187.611 32.11 188.351 31.23 189.291 30.63C190.251 30.01 191.341 29.7 192.561 29.7C193.541 29.7 194.401 29.92 195.141 30.36C195.901 30.8 196.511 31.41 196.971 32.19C197.451 32.97 197.741 33.87 197.841 34.89L197.241 35.37L197.511 30H202.101V51.3H197.001ZM194.241 41.55C194.821 41.55 195.311 41.39 195.711 41.07C196.131 40.75 196.451 40.29 196.671 39.69C196.891 39.07 197.001 38.33 197.001 37.47C197.001 36.57 196.891 35.83 196.671 35.25C196.451 34.65 196.131 34.2 195.711 33.9C195.311 33.6 194.831 33.45 194.271 33.45C193.391 33.45 192.691 33.78 192.171 34.44C191.671 35.08 191.421 36.1 191.421 37.5C191.421 38.9 191.671 39.93 192.171 40.59C192.671 41.23 193.361 41.55 194.241 41.55ZM210.83 45.3C209.81 45.3 208.91 45.13 208.13 44.79C207.37 44.43 206.77 43.86 206.33 43.08C205.89 42.3 205.67 41.28 205.67 40.02V30H210.77V38.82C210.77 39.78 210.96 40.45 211.34 40.83C211.72 41.21 212.26 41.4 212.96 41.4C213.32 41.4 213.66 41.34 213.98 41.22C214.3 41.08 214.58 40.88 214.82 40.62C215.06 40.34 215.24 39.99 215.36 39.57C215.5 39.13 215.57 38.62 215.57 38.04V30H220.67V45H216.11L215.96 42.18C215.48 43.24 214.81 44.03 213.95 44.55C213.09 45.05 212.05 45.3 210.83 45.3ZM232.704 35.49C232.704 34.79 232.504 34.24 232.104 33.84C231.724 33.42 231.204 33.21 230.544 33.21C229.884 33.21 229.314 33.38 228.834 33.72C228.374 34.04 228.054 34.62 227.874 35.46L223.554 34.44C223.834 33 224.574 31.85 225.774 30.99C226.974 30.13 228.664 29.7 230.844 29.7C232.304 29.7 233.544 29.92 234.564 30.36C235.604 30.78 236.394 31.42 236.934 32.28C237.494 33.12 237.774 34.16 237.774 35.4V40.89C237.774 41.67 238.124 42.06 238.824 42.06C239.184 42.06 239.474 42.02 239.694 41.94L239.394 44.85C238.794 45.13 238.064 45.27 237.204 45.27C236.424 45.27 235.734 45.15 235.134 44.91C234.534 44.65 234.064 44.27 233.724 43.77C233.384 43.25 233.214 42.6 233.214 41.82V41.64L233.784 41.43C233.784 42.29 233.524 43.01 233.004 43.59C232.504 44.17 231.844 44.6 231.024 44.88C230.224 45.16 229.384 45.3 228.504 45.3C227.484 45.3 226.594 45.14 225.834 44.82C225.074 44.5 224.484 44.04 224.064 43.44C223.664 42.82 223.464 42.06 223.464 41.16C223.464 40.08 223.784 39.19 224.424 38.49C225.084 37.77 226.114 37.27 227.514 36.99L233.184 35.82L233.154 38.52L230.274 39.12C229.674 39.24 229.224 39.42 228.924 39.66C228.644 39.88 228.504 40.22 228.504 40.68C228.504 41.12 228.664 41.45 228.984 41.67C229.304 41.89 229.684 42 230.124 42C230.464 42 230.784 41.95 231.084 41.85C231.404 41.75 231.684 41.6 231.924 41.4C232.164 41.18 232.354 40.91 232.494 40.59C232.634 40.27 232.704 39.89 232.704 39.45V35.49ZM247.11 45.3C245.87 45.3 244.78 45 243.84 44.4C242.92 43.78 242.2 42.89 241.68 41.73C241.18 40.57 240.93 39.18 240.93 37.56C240.93 35.88 241.19 34.46 241.71 33.3C242.25 32.14 242.99 31.25 243.93 30.63C244.89 30.01 245.99 29.7 247.23 29.7C248.59 29.7 249.68 30.12 250.5 30.96C251.34 31.78 251.88 32.83 252.12 34.11L251.64 34.74V23.64H256.74V45H252.18L251.85 39.9L252.45 40.35C252.33 41.35 252.02 42.22 251.52 42.96C251.04 43.7 250.42 44.28 249.66 44.7C248.92 45.1 248.07 45.3 247.11 45.3ZM248.88 41.55C249.46 41.55 249.95 41.4 250.35 41.1C250.77 40.78 251.09 40.31 251.31 39.69C251.53 39.07 251.64 38.31 251.64 37.41C251.64 36.57 251.53 35.86 251.31 35.28C251.11 34.68 250.8 34.23 250.38 33.93C249.98 33.61 249.49 33.45 248.91 33.45C248.03 33.45 247.33 33.78 246.81 34.44C246.31 35.08 246.06 36.1 246.06 37.5C246.06 38.9 246.31 39.93 246.81 40.59C247.31 41.23 248 41.55 248.88 41.55Z" fill="#171A21"/>
</svg>
