<svg width="32" height="27" viewBox="0 0 32 27" fill="none" xmlns="http://www.w3.org/2000/svg">
<path d="M31.5005 4.1955C30.3771 4.69346 29.1853 5.0201 27.965 5.1645C29.2507 4.39593 30.2126 3.18555 30.671 1.7595C29.4627 2.47659 28.1406 2.98187 26.762 3.2535C26.1864 2.6389 25.4906 2.14919 24.7177 1.81477C23.9449 1.48036 23.1116 1.30837 22.2695 1.3095C18.296 1.3095 15.377 5.0175 16.274 8.8665C13.8269 8.74405 11.4328 8.10825 9.24736 7.00041C7.0619 5.89256 5.13389 4.33743 3.58852 2.436C2.80214 3.79121 2.56141 5.39505 2.91527 6.92141C3.26914 8.44777 4.19104 9.78206 5.49352 10.653C4.51606 10.6231 3.55994 10.3598 2.70502 9.885C2.63752 12.7365 4.68052 15.405 7.64002 15.9975C6.7336 16.2436 5.78294 16.2795 4.86052 16.1025C5.25337 17.3259 6.01904 18.3959 7.0503 19.1625C8.08156 19.9291 9.32677 20.3539 10.6115 20.3775C8.03177 22.4011 4.75439 23.3182 1.49902 22.9275C4.31345 24.7356 7.58886 25.6953 10.934 25.692C22.361 25.692 28.817 16.041 28.427 7.3845C29.6319 6.51318 30.6722 5.43435 31.499 4.1985L31.5005 4.1955Z" fill="#FAFAFA"/>
</svg>
