<svg width="32" height="30" viewBox="0 0 32 30" fill="none" xmlns="http://www.w3.org/2000/svg">
<path d="M15.4995 2.703C19.5045 2.703 19.98 2.718 21.5625 2.7915C25.6275 2.976 27.5265 4.905 27.7125 8.94C27.7845 10.521 27.798 10.995 27.798 15C27.798 19.008 27.783 19.482 27.711 21.063C27.525 25.0935 25.632 27.0255 21.5625 27.2115C19.98 27.2835 19.5075 27.2985 15.4995 27.2985C11.4945 27.2985 11.0205 27.2835 9.43948 27.2115C5.36398 27.0255 3.47548 25.0875 3.28948 21.0615C3.21748 19.4805 3.20248 19.0065 3.20248 15C3.20248 10.995 3.21748 10.521 3.28948 8.94C3.47548 4.905 5.36998 2.9745 9.43948 2.79C11.0205 2.718 11.4945 2.703 15.4995 2.703ZM15.4995 0C11.427 0 10.917 0.018 9.31648 0.09C3.86848 0.3405 0.839977 3.363 0.590977 8.8155C0.517477 10.416 0.500977 10.926 0.500977 15C0.500977 19.074 0.517477 19.5855 0.590977 21.1845C0.839977 26.6325 3.86248 29.6595 9.31498 29.91C10.917 29.982 11.427 30 15.4995 30C19.5735 30 20.085 29.982 21.6855 29.91C27.1275 29.6595 30.162 26.637 30.4095 21.1845C30.483 19.5855 30.4995 19.074 30.4995 15C30.4995 10.926 30.483 10.416 30.4095 8.817C30.165 3.3735 27.1395 0.342 21.687 0.09C20.085 0.015 19.5735 0 15.4995 0ZM15.4995 7.2975C13.4566 7.2975 11.4975 8.10901 10.053 9.55351C8.60849 10.998 7.79698 12.9572 7.79698 15C7.79698 17.0428 8.60849 19.002 10.053 20.4465C11.4975 21.891 13.4566 22.7025 15.4995 22.7025C17.5423 22.7025 19.5015 21.891 20.946 20.4465C22.3905 19.002 23.202 17.0428 23.202 15C23.202 12.9572 22.3905 10.998 20.946 9.55351C19.5015 8.10901 17.5423 7.2975 15.4995 7.2975ZM15.4995 19.9995C14.1735 19.9995 12.9019 19.4728 11.9643 18.5352C11.0267 17.5976 10.5 16.326 10.5 15C10.5 13.6741 11.0267 12.4024 11.9643 11.4648C12.9019 10.5272 14.1735 10.0005 15.4995 10.0005C16.8254 10.0005 18.0971 10.5272 19.0347 11.4648C19.9722 12.4024 20.499 13.6741 20.499 15C20.499 16.326 19.9722 17.5976 19.0347 18.5352C18.0971 19.4728 16.8254 19.9995 15.4995 19.9995ZM23.508 5.1945C23.2716 5.1944 23.0375 5.24086 22.8191 5.33123C22.6007 5.4216 22.4022 5.5541 22.235 5.72118C22.0677 5.88825 21.9351 6.08663 21.8445 6.30498C21.754 6.52333 21.7073 6.75737 21.7072 6.99375C21.7071 7.23013 21.7536 7.46421 21.844 7.68264C21.9343 7.90106 22.0668 8.09955 22.2339 8.26676C22.401 8.43398 22.5994 8.56665 22.8177 8.6572C23.0361 8.74775 23.2701 8.7944 23.5065 8.7945C23.9839 8.7945 24.4417 8.60486 24.7793 8.26729C25.1168 7.92973 25.3065 7.47189 25.3065 6.9945C25.3065 6.51711 25.1168 6.05927 24.7793 5.72171C24.4417 5.38414 23.9839 5.1945 23.5065 5.1945H23.508Z" fill="#FAFAFA"/>
</svg>
